PathFileType	4	(X/Y/Z)	/Users/niels/Desktop/University/Third Semester/Perception and Action/Exam/Gymnastics Motion Tracking/Code for Gym Tracking/Analyzed Data/Webcam_Backflip/id4_2_trajectory_Sports2D/id4_2_trajectory_Sports2D_px_person00.trc
DataRate	CameraRate	NumFrames	NumMarkers	Units	OrigDataRate	OrigDataStartFrame	OrigNumFrames
29.714285714285715	29.714285714285715	12	22	m	29.714285714285715	39	105
Frame#	Time	Hip			RHip			RKnee			RAnkle			RBigToe			RSmallToe			RHeel			LHip			LKnee			LAnkle			LBigToe			LSmallToe			LHeel			Neck			Head			Nose			RShoulder			RElbow			RWrist			LShoulder			LElbow			LWrist		
		X1	Y1	Z1	X2	Y2	Z2	X3	Y3	Z3	X4	Y4	Z4	X5	Y5	Z5	X6	Y6	Z6	X7	Y7	Z7	X8	Y8	Z8	X9	Y9	Z9	X10	Y10	Z10	X11	Y11	Z11	X12	Y12	Z12	X13	Y13	Z13	X14	Y14	Z14	X15	Y15	Z15	X16	Y16	Z16	X17	Y17	Z17	X18	Y18	Z18	X19	Y19	Z19	X20	Y20	Z20	X21	Y21	Z21	X22	Y22	Z22
39	1.3125	0.9749508016922247	-0.6140509917278723	0.0	0.9765045059133023	-0.6145599627688477	0.0	0.9746570770659462	-0.735555543012935	0.0	0.9506703215387087	-0.852803597772041	0.0	0.9848376180506582	-0.8766100791876301	0.0	0.9765803862768028	-0.8770670139909534	0.0	0.9424426575089095	-0.8702453745847913	0.0	0.976089444901883	-0.6125268391853363	0.0	0.9724039046358123	-0.7337342746248021	0.0	0.9500739797722633	-0.8482167021285941	0.0	0.9825910578054408	-0.8718451673129473	0.0	0.9749640866710328	-0.8646768732914029	0.0	0.9393081915549387	-0.8577781584116451	0.0	0.9644160472675312	-0.4511960104327857	0.0	1.00269712761151	-0.3745804376261256	0.0	1.001367970138907	-0.4132616816985058	0.0	0.9585499129372776	-0.46056587001937843	0.0	1.0250241577657506	-0.42416106691058636	0.0	1.055326339470844	-0.35851574896764055	0.0	0.9562702775143597	-0.45930169828281936	0.0	1.0037259172119704	-0.43203648790908283	0.0	1.0090202503775991	-0.3686409715512434	0.0
40	1.346153846153846	0.9756929259055271	-0.6154218989531329	0.0	0.9773497959264715	-0.6162690126223267	0.0	0.9748173829293163	-0.7365418198408251	0.0	0.9505407219294231	-0.852905303378416	0.0	0.9847044582747218	-0.8771482688169479	0.0	0.976973097162753	-0.8776615232425542	0.0	0.9423682243556654	-0.8707145853023439	0.0	0.9765062208849874	-0.6144526056664799	0.0	0.972454236295166	-0.7349807756664842	0.0	0.9499056308427348	-0.8483969434980114	0.0	0.9827020231053383	-0.8729399048272453	0.0	0.974963773033872	-0.865314640543166	0.0	0.9389726126445066	-0.8582067784686592	0.0	0.9654670413151314	-0.45258462128573684	0.0	1.0032323761172819	-0.37533566521925293	0.0	1.001092703505435	-0.41508172263988685	0.0	0.9603253232989298	-0.4619173508258492	0.0	1.024609025512931	-0.42026400497990135	0.0	1.052810828132669	-0.3541526855352579	0.0	0.9579297982432169	-0.4603833310277657	0.0	1.0036156951034885	-0.42878610100190456	0.0	1.0118208837216411	-0.36695968028039305	0.0
41	1.3798076923076923	0.9761423711144636	-0.6171298856608558	0.0	0.9776454349016547	-0.6181772186292982	0.0	0.9746163966823043	-0.7379439334561985	0.0	0.9504083876725233	-0.85373413031286	0.0	0.9845404247205618	-0.8782009343024508	0.0	0.9773150474249571	-0.8787274810019863	0.0	0.9424984876105464	-0.8718669175989983	0.0	0.9767999524880582	-0.61649810072306	0.0	0.9723488540538751	-0.7367356655697723	0.0	0.9498924152305254	-0.8493663461943465	0.0	0.9828615398163475	-0.8746265706311015	0.0	0.9751605142005196	-0.8666533621102384	0.0	0.9388891781499209	-0.8594569147132348	0.0	0.9667277223778626	-0.454091646884534	0.0	1.0031732458475582	-0.37608388413923116	0.0	1.0009558509246546	-0.4165808533705471	0.0	0.9622946647881929	-0.46341724559128894	0.0	1.023974325701251	-0.41696365702914323	0.0	1.0501089482394446	-0.35029983431229517	0.0	0.9600185104973442	-0.46154745380621826	0.0	1.0042627584186496	-0.4257154323430608	0.0	1.0160430957905549	-0.3645088198707988	0.0
42	1.4134615384615383	0.9762407462263966	-0.6190474732770302	0.0	0.9773386467921962	-0.6202085337994508	0.0	0.9740470905775115	-0.7397493698657708	0.0	0.9502694387221422	-0.855312353792703	0.0	0.9843651465375061	-0.8797429660355228	0.0	0.977621406005839	-0.8802570120959327	0.0	0.9428028788569783	-0.8737181241352059	0.0	0.9769475391662147	-0.6185225140412216	0.0	0.9720283125149155	-0.7388971760655905	0.0	0.9499478230722662	-0.8511773517892965	0.0	0.9830520204388796	-0.8768811061122973	0.0	0.9755147461838147	-0.8687135756867532	0.0	0.9390480318020077	-0.8614773374493216	0.0	0.96821425041547	-0.45549638465374687	0.0	1.0029478739330342	-0.37675318917885164	0.0	1.0012027591200723	-0.41768424607178495	0.0	0.9643468789663763	-0.4647504094140777	0.0	1.0232042107368644	-0.41417969220899054	0.0	1.0475490517738046	-0.3468870956433939	0.0	0.9624244416526101	-0.4625864423074918	0.0	1.005710706888849	-0.42255970887723465	0.0	1.02146370443363	-0.36084085659818704	0.0
43	1.4471153846153846	0.9759239615515797	-0.6209851118635001	0.0	0.9764609385348784	-0.6221822763284421	0.0	0.9731208478737676	-0.7417774877961787	0.0	0.9501100989161813	-0.8573714841415235	0.0	0.9840554082323218	-0.8815668715971798	0.0	0.9777315113480544	-0.8820566222664503	0.0	0.9432005687068522	-0.8759997930608486	0.0	0.9768734904724896	-0.6203673770283958	0.0	0.9714607389051527	-0.741165491860534	0.0	0.9499724595575425	-0.8535553358020428	0.0	0.9831400160249337	-0.8794320651440495	0.0	0.9759294899732578	-0.871238797813023	0.0	0.939395814349139	-0.8640062862257865	0.0	0.9698826094268812	-0.45661325387993956	0.0	1.0029462257164883	-0.37732902099652216	0.0	1.0020296010248597	-0.4184588718764335	0.0	0.9663968598006318	-0.46564394862205283	0.0	1.0224737879711727	-0.4117951764303591	0.0	1.04573274531084	-0.3437286401521637	0.0	0.9649975797012864	-0.463324302025382	0.0	1.0079130621536752	-0.41932527956710214	0.0	1.0273772698411714	-0.35612097138269655	0.0
44	1.4807692307692306	0.975137794094572	-0.6226354100806906	0.0	0.9751200247090885	-0.623827930160287	0.0	0.9719027984818138	-0.743667991814231	0.0	0.9499311811908957	-0.8594265840939456	0.0	0.9834807760864314	-0.883340376204408	0.0	0.9774822001419401	-0.8837630610728102	0.0	0.943629536766923	-0.878222752172141	0.0	0.9764151097109696	-0.6218219195507112	0.0	0.9706546492362604	-0.7431106905091205	0.0	0.9499173175254757	-0.8559896513372356	0.0	0.9829891901207405	-0.8818035304933205	0.0	0.9762701146295377	-0.8737548419813304	0.0	0.9398541886955705	-0.8666222454330601	0.0	0.9716708839286579	-0.45730434625266714	0.0	1.0035230081136854	-0.37779821673054487	0.0	1.003536191118828	-0.4189682338459778	0.0	0.9684339159984535	-0.46593997599851195	0.0	1.022051301746587	-0.4096996303390463	0.0	1.0453552599762626	-0.3406798875683346	0.0	0.9676049305225075	-0.4635963419115585	0.0	1.0106824765397175	-0.41618260754052927	0.0	1.033277258326805	-0.35101567362375297	0.0
45	1.5144230769230769	0.9738284298829006	-0.6236137170836099	0.0	0.9734412419228511	-0.624839379023404	0.0	0.9705514483383616	-0.7449525262567346	0.0	0.9497818578569753	-0.8609565815390813	0.0	0.9827377808939902	-0.8846925488206079	0.0	0.9769504942485573	-0.884983047350131	0.0	0.9440438126710775	-0.8798455730425129	0.0	0.9753494039030229	-0.6226249108501003	0.0	0.9696603354381613	-0.7442967992320266	0.0	0.9498113324601513	-0.8578988274020629	0.0	0.9825998083659506	-0.8835078983437477	0.0	0.9764132317875643	-0.8757549603731664	0.0	0.9403224978321779	-0.8688228475742832	0.0	0.9735597395567699	-0.4574515765372235	0.0	1.0050271990486384	-0.3781128983598539	0.0	1.0057214290340608	-0.41916432117153957	0.0	0.9704811643678651	-0.46557742473859587	0.0	1.0222918352864871	-0.40777389000770536	0.0	1.0470077767341424	-0.33770622446281817	0.0	0.9701872941948364	-0.46327928842762195	0.0	1.0138620782273828	-0.413295885048946	0.0	1.039138748664454	-0.34626233142379087	0.0
46	1.548076923076923	0.9719300260786089	-0.6236078792234835	0.0	0.9715240231598082	-0.6249746784391756	0.0	0.9692687248772827	-0.7452119353012617	0.0	0.9497122010239158	-0.8615720261175451	0.0	0.9820730693695449	-0.8852897579513179	0.0	0.9763585980147461	-0.8854286381076021	0.0	0.9443500292805179	-0.8804384960737849	0.0	0.9734756669792625	-0.6225692321119872	0.0	0.968546432372271	-0.7444256247904703	0.0	0.9496938778397434	-0.8588237413082186	0.0	0.9820108450653173	-0.8842286175833313	0.0	0.9762014784129588	-0.8768713267782217	0.0	0.9406777131879986	-0.8701700733372321	0.0	0.9755984452111137	-0.45692588016245494	0.0	1.0077104414085525	-0.3782043403816917	0.0	1.0085315784162705	-0.4189020743218259	0.0	0.9725241805561126	-0.4645690370518126	0.0	1.0235868799156167	-0.40585992478273936	0.0	1.0510616068118424	-0.33485699677743097	0.0	0.9727521457330613	-0.4623429601839208	0.0	1.0174906486241047	-0.41073427789908074	0.0	1.0453453079897344	-0.3422702684592495	0.0
47	1.5817307692307692	0.9693993953574511	-0.6224952555066395	0.0	0.9694118125501557	-0.6241397214064317	0.0	0.9681768881466389	-0.7442846611244576	0.0	0.9496991188157187	-0.8611220124311191	0.0	0.9816197534835169	-0.8849314129271645	0.0	0.9758366577600472	-0.884986639626208	0.0	0.9443992954652025	-0.8798018785668449	0.0	0.9707123308202197	-0.6215933606348715	0.0	0.9673617709513161	-0.7434590409573825	0.0	0.9495340014609215	-0.8585840936470066	0.0	0.9811755247700475	-0.8838725944700114	0.0	0.9754397294654724	-0.8769617874853731	0.0	0.9408000426190581	-0.8704301617073387	0.0	0.9778442842300002	-0.45566616565153933	0.0	1.011714754140406	-0.378038008332441	0.0	1.011936948808878	-0.4180986056497474	0.0	0.9744929409014974	-0.4630075755604204	0.0	1.0262635222795518	-0.40387124431663335	0.0	1.0575576520023586	-0.33231467768981937	0.0	0.9753043600751348	-0.46087208041735445	0.0	1.0217046966768493	-0.408509199451955	0.0	1.0523944387237354	-0.3391663655908803	0.0
48	1.6153846153846154	0.9662893558646015	-0.6203503355453781	0.0	0.9670681502591701	-0.6223922245071375	0.0	0.967243034163113	-0.7423577847501488	0.0	0.9496744819968135	-0.8597056457399862	0.0	0.981315723937874	-0.8836354098438279	0.0	0.9753695879192174	-0.8837546652827774	0.0	0.9440933955572589	-0.8780019153295854	0.0	0.967170802552753	-0.6197448769450744	0.0	0.9661046811450867	-0.7416062423944585	0.0	0.949267675023471	-0.8572576865003507	0.0	0.9800196480220446	-0.8825311095640502	0.0	0.9740091908280956	-0.8761141546811978	0.0	0.9406183117228151	-0.8695845024627868	0.0	0.9802849747716403	-0.4537927874040513	0.0	1.0170854289687754	-0.3776865102634767	0.0	1.01593791551023	-0.4168612479717096	0.0	0.9763300780549014	-0.4610506200407792	0.0	1.0304721377878958	-0.40197408318316885	0.0	1.0661603744640933	-0.33045023628564274	0.0	0.9777928411568663	-0.4590372978278533	0.0	1.0265702443723086	-0.406634545588127	0.0	1.0606329885929673	-0.33703987250708106	0.0
49	1.6490384615384615	0.9627681964281795	-0.6173915445896122	0.0	0.9644222922199255	-0.6199102903933866	0.0	0.9663055062413479	-0.7398259625946463	0.0	0.949617244003444	-0.8575940513856528	0.0	0.9810271454925646	-0.8816207270620412	0.0	0.9748820405030227	-0.8820086477803185	0.0	0.9434684251597537	-0.8753286420956711	0.0	0.9631188289612533	-0.6171284123693243	0.0	0.9647168608229266	-0.7391877447196405	0.0	0.9489154417690543	-0.8550436564981049	0.0	0.9785868811558164	-0.880432584139455	0.0	0.9720266753313007	-0.8745434026053714	0.0	0.9401322307366924	-0.8677516726498589	0.0	0.9828499405496454	-0.4515973595364375	0.0	1.0235814710168558	-0.3773603520692138	0.0	1.0204393993408218	-0.41544352417823643	0.0	0.9781008102563371	-0.4588687041045325	0.0	1.0361536804175153	-0.40058644550454636	0.0	1.0763235191820668	-0.32976284877632334	0.0	0.9800940897521632	-0.4570261752577211	0.0	1.032016985479241	-0.40518108703758865	0.0	1.070195824838713	-0.3360980607683242	0.0
50	1.6826923076923077	0.9590602705968211	-0.6139473049793294	0.0	0.9614497882319485	-0.6169606578424482	0.0	0.9651449689940131	-0.7370811817195644	0.0	0.9495747188375806	-0.8551441929140469	0.0	0.9807071860734422	-0.8792403988866783	0.0	0.9743538235724588	-0.880119498096112	0.0	0.9426473864746417	-0.8722445354351842	0.0	0.9588494170304475	-0.6139454374607728	0.0	0.9631103071982943	-0.7365345861095995	0.0	0.9486196231714082	-0.8522140244745192	0.0	0.9771472903581184	-0.8779065991704831	0.0	0.9699745401788893	-0.8724725799700999	0.0	0.9394172033015253	-0.8651715445140205	0.0	0.9854964585885991	-0.4494341889520645	0.0	1.0305446143577939	-0.3773485365312516	0.0	1.0251640669656792	-0.41415926208475246	0.0	0.9800132640372236	-0.4566285280683269	0.0	1.043114734899715	-0.40016932019371976	0.0	1.0875651291072137	-0.33073540646010713	0.0	0.9820725494014014	-0.45500426220459006	0.0	1.037892747470102	-0.4043235564369028	0.0	1.081033671175741	-0.3367060292099124	0.0
